<?xml version="1.0" encoding="utf-8"?>
<!-- Generator: Adobe Illustrator 23.0.6, SVG Export Plug-In . SVG Version: 6.00 Build 0)  -->
<svg version="1.1" id="Layer_1" xmlns="http://www.w3.org/2000/svg" xmlns:xlink="http://www.w3.org/1999/xlink" x="0px" y="0px"
	 viewBox="0 0 129.51 109.82" style="enable-background:new 0 0 129.51 109.82;" xml:space="preserve">
<path fill="#ddd" id="_30" d="M65.07,84.19h-36.2l-7.4,24.2c-0.19,0.85-1,1.47-1.9,1.42H1.21c-1.04,0-1.42-0.57-1.09-1.71l31.27-90.29
	c0.33-0.95,0.62-1.99,0.95-3.23c0.43-1.76,0.66-3.56,0.62-5.36c-0.09-0.52,0.28-1.04,0.81-1.09c0.09,0,0.19,0,0.28,0h24.91
	c0.71,0,1.14,0.28,1.23,0.81l35.68,99.3c0.33,1.04,0,1.57-0.95,1.57H74.56c-0.71,0.09-1.38-0.38-1.57-1.09L65.07,84.19z
	 M34.28,67.49H60.8c-0.62-2.09-2.8-6.93-3.61-9.54c-0.81-2.61-1.99-4.7-2.94-7.69c-0.95-2.99-1.9-5.98-2.8-8.92
	c-0.95-2.99-1.8-5.84-2.61-8.64c-0.81-2.75-1.47-5.31-2.14-7.59h-0.14c-0.9,4.22-1.99,8.4-3.27,12.53
	c-1.47,4.7-2.94,9.49-4.46,14.42C37.31,57,35.75,63.31,34.28,67.49L34.28,67.49z"/>
<path fill="#ddd" id="_31" d="M117.12,24.45c-3.23,0.14-6.36-1.14-8.64-3.46c-2.23-2.42-3.42-5.65-3.27-8.92c-0.09-3.27,1.19-6.45,3.51-8.68
	c2.32-2.23,5.46-3.46,8.68-3.37c3.27-0.19,6.5,1.04,8.87,3.37c2.18,2.37,3.32,5.5,3.23,8.68c0.14,3.32-1.09,6.55-3.37,8.92
	C123.71,23.36,120.44,24.6,117.12,24.45z M106.96,108.19V36.55c0-0.95,0.43-1.42,1.23-1.42h17.79c0.85,0,1.23,0.47,1.23,1.42v71.64
	c0,1.04-0.43,1.57-1.23,1.57h-17.65C107.44,109.76,106.96,109.24,106.96,108.19z"/>
</svg>
