<?xml version="1.0" encoding="utf-8"?>
<!-- Generator: Adobe Illustrator 23.0.6, SVG Export Plug-In . SVG Version: 6.00 Build 0)  -->
<svg version="1.1" id="Layer_1" xmlns="http://www.w3.org/2000/svg" xmlns:xlink="http://www.w3.org/1999/xlink" x="0px" y="0px"
	 viewBox="0 0 901.8 267.6" style="enable-background:new 0 0 901.8 267.6;" xml:space="preserve">
<style type="text/css">
	.st0{fill:none;stroke:#000000;stroke-width:1.3953;}
</style>
<path class="st0" d="M81.9,93.9H61.4V55.7H21.2v38.2H0.7V0.7h20.5v36.7h40.2V0.7h20.5V93.9z M167.5,93.9H99V0.7h66.8V18h-46.5v20.2
	h41.1V55h-41.1v21.6h48.2V93.9z M227,93.9h-20.5V60.6L172.3,0.7H194l23.7,41.4l23.6-41.4h20.1L227,60.9V93.9z M267.7,91.4
	c-2.4-2.4-3.7-5.2-3.7-8.6c0-3.4,1.2-6.2,3.6-8.5c2.4-2.3,5.5-3.4,9.2-3.4c3.7,0,6.8,1.1,9.2,3.4c2.4,2.3,3.6,5.1,3.6,8.5
	c0,3.4-1.2,6.2-3.7,8.6c-2.4,2.4-5.5,3.5-9.1,3.5C273.2,95,270.2,93.8,267.7,91.4z M289.2,0.7l-4.1,60.8h-16.5l-4.1-60.8H289.2z
	 M351.4,0.7v93.2h-20.5V0.7H351.4z M384.1,0.7l-1.5,37.8h-14.9l-1.3-37.8H384.1z M479.5,38L453.4,84h-9.2l-26-44.9v54.7H399V0.7H416
	l33.2,57.9l32.6-57.9h16.9l0.1,93.2h-19.2L479.5,38z M584.6,93.9h-20.5V60.6L529.9,0.7h21.7l23.7,41.4l23.6-41.4H619l-34.3,60.2
	V93.9z M633.4,84.4c-7-7.4-10.5-17.9-10.5-31.6V0.7h20.5v51.4c0,16.7,6.6,25,19.7,25c6.5,0,11.4-2,14.7-6.1c3.3-4,5-10.4,5-19V0.7
	H703v52.2c0,13.7-3.5,24.2-10.5,31.6c-7,7.4-16.9,11.1-29.6,11.1C650.2,95.5,640.4,91.8,633.4,84.4z M757.7,67.9h-17.8v26h-20.5V0.7
	h38.3c7.8,0,14.6,1.4,20.4,4.1c5.8,2.8,10.2,6.7,13.4,11.7c3.1,5.1,4.7,11.1,4.7,18c0,6.9-1.6,12.9-4.8,17.9
	c-3.2,5-7.7,8.9-13.4,11.5l19.8,30h-22l-17.2-26H757.7z M770.6,46.5c3.2-2.8,4.9-6.8,4.9-12c0-5.1-1.6-9.1-4.8-12
	c-3.2-2.8-7.9-4.3-14.1-4.3h-16.6v32.5h16.6C762.6,50.8,767.3,49.3,770.6,46.5z M830.3,73.9l-7.9,20h-21l39.5-93.2h20.2l39.5,93.2
	h-21.4l-7.9-20H830.3z M850.9,21.9l-14.1,35.7h28.1L850.9,21.9z M12.1,134.6v41.9h24.6v9.7H0.7v-51.7H12.1z M80.8,186.3h-38v-51.7
	h37v9.6H54.1v11.2h22.8v9.3H54.1v12h26.7V186.3z M84.1,144.4v-9.7h42.7v9.7h-15.6v41.9H99.8v-41.9H84.1z M141.4,134.6l-0.8,21h-8.3
	l-0.7-21H141.4z M156.6,185.5c-3.6-1.1-6.5-2.5-8.7-4.3l3.8-9c2.1,1.6,4.6,2.9,7.5,3.9c2.9,1,5.8,1.5,8.6,1.5c3.2,0,5.6-0.5,7.2-1.5
	c1.5-1,2.3-2.3,2.3-4c0-1.2-0.5-2.3-1.4-3.1c-0.9-0.8-2.1-1.5-3.5-2c-1.4-0.5-3.4-1-5.8-1.6c-3.7-0.9-6.8-1.9-9.2-2.8
	c-2.4-0.9-4.4-2.4-6.1-4.5c-1.7-2.1-2.6-4.8-2.6-8.3c0-3,0.8-5.7,2.3-8.2c1.5-2.4,3.9-4.4,7-5.8c3.1-1.4,6.9-2.1,11.4-2.1
	c3.1,0,6.2,0.4,9.2,1.2c3,0.8,5.6,1.9,7.9,3.4l-3.5,9.1c-4.5-2.7-9.1-4.1-13.7-4.1c-3.2,0-5.5,0.5-7,1.6c-1.5,1.1-2.3,2.5-2.3,4.3
	c0,1.8,0.9,3.1,2.6,3.9c1.7,0.9,4.4,1.7,8,2.5c3.7,0.9,6.8,1.9,9.2,2.8c2.4,0.9,4.4,2.4,6.2,4.4c1.7,2,2.6,4.7,2.6,8.2
	c0,3-0.8,5.6-2.4,8.1c-1.6,2.4-3.9,4.4-7,5.8c-3.1,1.4-6.9,2.1-11.5,2.1C163.9,187.2,160.2,186.6,156.6,185.5z M255.4,164.1
	c1.6,2.2,2.4,4.9,2.4,8.1c0,4.5-1.7,8-5,10.4c-3.3,2.4-8.2,3.7-14.6,3.7h-25.4v-51.7h24c6,0,10.6,1.2,13.8,3.6
	c3.2,2.4,4.8,5.7,4.8,9.8c0,2.5-0.6,4.7-1.7,6.7c-1.2,2-2.8,3.5-4.8,4.6C251.6,160.4,253.8,161.9,255.4,164.1z M224.1,155.8h11.3
	c2.8,0,4.9-0.5,6.4-1.5c1.5-1,2.2-2.6,2.2-4.6c0-2-0.7-3.5-2.2-4.5c-1.5-1-3.6-1.5-6.4-1.5h-11.3V155.8z M244.1,175.7
	c1.5-1,2.3-2.6,2.3-4.8c0-4.3-3-6.4-9.1-6.4h-13.2v12.8h13.2C240.3,177.3,242.6,176.8,244.1,175.7z M271.6,181.1
	c-3.9-4.1-5.8-9.9-5.8-17.5v-28.9h11.4v28.5c0,9.2,3.6,13.9,10.9,13.9c3.6,0,6.3-1.1,8.2-3.4c1.8-2.2,2.8-5.7,2.8-10.5v-28.5h11.2
	v28.9c0,7.6-1.9,13.4-5.8,17.5c-3.9,4.1-9.3,6.1-16.4,6.1C281,187.2,275.5,185.1,271.6,181.1z M332.6,134.6v51.7h-11.4v-51.7H332.6z
	 M355.4,134.6v41.9H380v9.7h-35.9v-51.7H355.4z M422.6,137.9c4.1,2.1,7.3,5.2,9.6,9c2.3,3.9,3.4,8.4,3.4,13.6
	c0,5.2-1.1,9.7-3.4,13.6c-2.3,3.9-5.4,6.9-9.6,9c-4.1,2.1-8.8,3.2-14.1,3.2h-22.3v-51.7h22.3C413.8,134.6,418.5,135.7,422.6,137.9z
	 M419.7,172.2c2.9-2.9,4.4-6.8,4.4-11.7c0-4.9-1.5-8.8-4.4-11.7c-2.9-2.9-6.9-4.3-11.8-4.3h-10.3v32h10.3
	C412.8,176.5,416.7,175,419.7,172.2z M465.4,185.5c-3.6-1.1-6.5-2.5-8.7-4.3l3.8-9c2.1,1.6,4.6,2.9,7.5,3.9c2.9,1,5.8,1.5,8.6,1.5
	c3.2,0,5.6-0.5,7.2-1.5c1.5-1,2.3-2.3,2.3-4c0-1.2-0.5-2.3-1.4-3.1c-0.9-0.8-2.1-1.5-3.5-2c-1.4-0.5-3.4-1-5.8-1.6
	c-3.7-0.9-6.8-1.9-9.2-2.8c-2.4-0.9-4.4-2.4-6.1-4.5c-1.7-2.1-2.6-4.8-2.6-8.3c0-3,0.8-5.7,2.3-8.2c1.5-2.4,3.9-4.4,7-5.8
	c3.1-1.4,6.9-2.1,11.4-2.1c3.1,0,6.2,0.4,9.2,1.2c3,0.8,5.6,1.9,7.9,3.4l-3.5,9.1c-4.5-2.7-9.1-4.1-13.7-4.1c-3.2,0-5.5,0.5-7,1.6
	c-1.5,1.1-2.3,2.5-2.3,4.3c0,1.8,0.9,3.1,2.6,3.9c1.7,0.9,4.4,1.7,8,2.5c3.7,0.9,6.8,1.9,9.2,2.8c2.4,0.9,4.4,2.4,6.2,4.4
	c1.7,2,2.6,4.7,2.6,8.2c0,3-0.8,5.6-2.4,8.1c-1.6,2.4-3.9,4.4-7,5.8c-3.1,1.4-6.9,2.1-11.5,2.1C472.8,187.2,469,186.6,465.4,185.5z
	 M515,183.7c-4.1-2.3-7.3-5.5-9.6-9.6c-2.3-4.1-3.5-8.6-3.5-13.7c0-5.1,1.2-9.6,3.5-13.7c2.3-4.1,5.5-7.2,9.6-9.6
	c4.1-2.3,8.7-3.5,13.8-3.5c5.1,0,9.6,1.2,13.7,3.5c4.1,2.3,7.3,5.5,9.6,9.6c2.3,4.1,3.5,8.6,3.5,13.7c0,5.1-1.2,9.6-3.5,13.7
	c-2.3,4.1-5.5,7.2-9.6,9.6c-4.1,2.3-8.7,3.5-13.7,3.5C523.7,187.2,519.1,186,515,183.7z M536.6,174.9c2.3-1.4,4.2-3.4,5.5-5.9
	c1.3-2.5,2-5.4,2-8.6c0-3.2-0.7-6.1-2-8.6s-3.2-4.5-5.5-5.9c-2.3-1.4-5-2.1-7.9-2.1c-2.9,0-5.5,0.7-7.9,2.1
	c-2.3,1.4-4.2,3.4-5.5,5.9c-1.3,2.5-2,5.4-2,8.6c0,3.2,0.7,6.1,2,8.6c1.3,2.5,3.2,4.5,5.5,5.9c2.3,1.4,5,2.1,7.9,2.1
	C531.7,177,534.3,176.3,536.6,174.9z M608.6,155.3l-14.5,25.5H589L574.6,156v30.3H564v-51.7h9.4l18.4,32.1l18.1-32.1h9.4l0.1,51.7
	h-10.6L608.6,155.3z M668.7,186.3h-38v-51.7h37v9.6H642v11.2h22.8v9.3H642v12h26.7V186.3z M671.9,144.4v-9.7h42.7v9.7H699v41.9
	h-11.4v-41.9H671.9z M765.6,186.3h-11.4v-21.2h-22.3v21.2h-11.4v-51.7h11.4V155h22.3v-20.4h11.4V186.3z M788.4,134.6v51.7H777v-51.7
	H788.4z M844.8,186.3h-9.4L811,154.9v31.4h-11.2v-51.7h9.4l24.4,31.4v-31.4h11.2V186.3z M899.8,159.7v21c-2.7,2.1-5.7,3.7-9.2,4.9
	c-3.5,1.1-7,1.7-10.6,1.7c-5.1,0-9.6-1.1-13.7-3.4c-4.1-2.3-7.3-5.5-9.6-9.5c-2.3-4.1-3.5-8.6-3.5-13.8c0-5.1,1.2-9.7,3.5-13.8
	c2.3-4.1,5.5-7.2,9.6-9.5c4.1-2.3,8.7-3.4,13.9-3.4c4.3,0,8.2,0.8,11.7,2.3c3.5,1.5,6.4,3.7,8.8,6.6l-7.3,7.1
	c-3.4-3.9-7.7-5.8-12.7-5.8c-3.1,0-5.9,0.7-8.3,2.1c-2.4,1.4-4.3,3.3-5.6,5.8c-1.4,2.5-2,5.4-2,8.6c0,3.2,0.7,6.1,2,8.6
	c1.4,2.5,3.2,4.5,5.6,5.9c2.4,1.4,5.2,2.1,8.3,2.1c3.2,0,6.2-0.7,8.8-2.2v-15.1H899.8z M72.4,243.8c1.6,2.2,2.4,4.9,2.4,8.1
	c0,4.5-1.7,8-5,10.4c-3.3,2.4-8.2,3.7-14.6,3.7H29.8v-51.7h24c6,0,10.6,1.2,13.8,3.6c3.2,2.4,4.8,5.7,4.8,9.8c0,2.5-0.6,4.7-1.7,6.7
	c-1.2,2-2.8,3.5-4.8,4.6C68.6,240.1,70.8,241.6,72.4,243.8z M41.1,235.5h11.3c2.8,0,4.9-0.5,6.4-1.5c1.5-1,2.2-2.6,2.2-4.6
	c0-2-0.7-3.5-2.2-4.5c-1.5-1-3.6-1.5-6.4-1.5H41.1V235.5z M61.1,255.4c1.5-1,2.3-2.6,2.3-4.8c0-4.3-3-6.4-9.1-6.4H41.1V257h13.2
	C57.3,257,59.6,256.5,61.1,255.4z M121.2,266h-38v-51.7h37v9.6H94.5v11.2h22.8v9.3H94.5v12h26.7V266z M139.5,254.9l-4.4,11.1h-11.7
	l21.9-51.7h11.2l21.9,51.7h-11.9l-4.4-11.1H139.5z M151,226.1l-7.8,19.8h15.6L151,226.1z M186,260.8c-3.9-4.1-5.8-9.9-5.8-17.5
	v-28.9h11.4v28.5c0,9.2,3.6,13.9,10.9,13.9c3.6,0,6.3-1.1,8.2-3.4c1.8-2.2,2.8-5.7,2.8-10.5v-28.5h11.2v28.9
	c0,7.6-1.9,13.4-5.8,17.5c-3.9,4.1-9.3,6.1-16.4,6.1C195.3,266.9,189.9,264.8,186,260.8z M230.1,224.1v-9.7h42.7v9.7h-15.6V266
	h-11.4v-41.9H230.1z M290.1,214.3V266h-11.4v-51.7H290.1z M312.9,237.6h22.7v9.6h-22.7V266h-11.4v-51.7h37v9.6h-25.7V237.6z
	 M352.4,260.8c-3.9-4.1-5.8-9.9-5.8-17.5v-28.9H358v28.5c0,9.2,3.6,13.9,10.9,13.9c3.6,0,6.3-1.1,8.2-3.4c1.8-2.2,2.8-5.7,2.8-10.5
	v-28.5H391v28.9c0,7.6-1.9,13.4-5.8,17.5c-3.9,4.1-9.3,6.1-16.4,6.1C361.8,266.9,356.3,264.8,352.4,260.8z M413.5,214.3v41.9H438
	v9.7h-35.9v-51.7H413.5z M455.3,224.1v-9.7H498v9.7h-15.6V266H471v-41.9H455.3z M512.4,263.4c-4.1-2.3-7.3-5.5-9.6-9.6
	c-2.3-4.1-3.5-8.6-3.5-13.7c0-5.1,1.2-9.6,3.5-13.7c2.3-4.1,5.5-7.2,9.6-9.6c4.1-2.3,8.7-3.5,13.8-3.5c5.1,0,9.6,1.2,13.7,3.5
	c4.1,2.3,7.3,5.5,9.6,9.6c2.3,4.1,3.5,8.6,3.5,13.7c0,5.1-1.2,9.6-3.5,13.7c-2.3,4.1-5.5,7.2-9.6,9.6c-4.1,2.3-8.7,3.5-13.7,3.5
	C521.1,266.9,516.5,265.7,512.4,263.4z M534.1,254.6c2.3-1.4,4.2-3.4,5.5-5.9s2-5.4,2-8.6c0-3.2-0.7-6.1-2-8.6s-3.2-4.5-5.5-5.9
	c-2.3-1.4-5-2.1-7.9-2.1c-2.9,0-5.5,0.7-7.9,2.1c-2.3,1.4-4.2,3.4-5.5,5.9c-1.3,2.5-2,5.4-2,8.6c0,3.2,0.7,6.1,2,8.6
	c1.3,2.5,3.2,4.5,5.5,5.9c2.3,1.4,5,2.1,7.9,2.1C529.1,256.7,531.8,256,534.1,254.6z M605,239.4v21c-2.7,2.1-5.7,3.7-9.2,4.9
	c-3.5,1.1-7,1.7-10.6,1.7c-5.1,0-9.6-1.1-13.7-3.4c-4.1-2.3-7.3-5.5-9.6-9.5c-2.3-4.1-3.5-8.6-3.5-13.8c0-5.1,1.2-9.7,3.5-13.8
	c2.3-4.1,5.5-7.2,9.6-9.5c4.1-2.3,8.7-3.4,13.9-3.4c4.3,0,8.2,0.8,11.7,2.3c3.5,1.5,6.4,3.7,8.8,6.6l-7.3,7.1
	c-3.4-3.9-7.7-5.8-12.7-5.8c-3.1,0-5.9,0.7-8.3,2.1c-2.4,1.4-4.3,3.3-5.6,5.8c-1.4,2.5-2,5.4-2,8.6c0,3.2,0.7,6.1,2,8.6
	c1.4,2.5,3.2,4.5,5.6,5.9c2.4,1.4,5.2,2.1,8.3,2.1c3.2,0,6.2-0.7,8.8-2.2v-15.1H605z M653.2,266h-38v-51.7h37v9.6h-25.8v11.2h22.8
	v9.3h-22.8v12h26.7V266z M656.5,224.1v-9.7h42.7v9.7h-15.6V266h-11.4v-41.9H656.5z M750.1,266h-11.4v-21.2h-22.3V266h-11.4v-51.7
	h11.4v20.4h22.3v-20.4h11.4V266z M799.6,266h-38v-51.7h37v9.6h-25.8v11.2h22.8v9.3h-22.8v12h26.7V266z M829.6,251.6h-9.9V266h-11.4
	v-51.7h21.3c4.3,0,8.1,0.8,11.3,2.3c3.2,1.5,5.7,3.7,7.4,6.5c1.7,2.8,2.6,6.1,2.6,10c0,3.8-0.9,7.1-2.7,9.9
	c-1.8,2.8-4.3,4.9-7.5,6.4l11,16.6h-12.2l-9.5-14.4H829.6z M836.7,239.7c1.8-1.6,2.7-3.8,2.7-6.6c0-2.9-0.9-5.1-2.7-6.6
	c-1.8-1.6-4.4-2.4-7.8-2.4h-9.2v18h9.2C832.3,242.1,834.9,241.3,836.7,239.7z M859.5,264.5c-1.4-1.4-2.1-3.1-2.1-5.2
	c0-2.1,0.7-3.8,2.1-5.1c1.4-1.3,3.1-2,5.1-2c2,0,3.7,0.7,5.1,2c1.4,1.3,2.1,3,2.1,5.1c0,2.1-0.7,3.8-2.1,5.2
	c-1.4,1.4-3.1,2.1-5.1,2.1C862.6,266.6,860.9,265.9,859.5,264.5z"/>
</svg>
