<?xml version="1.0" encoding="utf-8"?>
<!-- Generator: Adobe Illustrator 23.0.6, SVG Export Plug-In . SVG Version: 6.00 Build 0)  -->
<svg version="1.1" id="Layer_1" xmlns="http://www.w3.org/2000/svg" xmlns:xlink="http://www.w3.org/1999/xlink" x="0px" y="0px"
	 viewBox="0 0 302 356.3" style="enable-background:new 0 0 302 356.3;" xml:space="preserve">
<style type="text/css">
	.st0{fill:#DDDDDD;}
</style>
<path class="st0" d="M302,60c-1.2,5.7-2,11.4-3.5,17c-6.5,24.7-21.5,43.3-42,57.7c-19.6,13.7-41.6,21.9-65.4,25.4
	c-20.1,3-39.8,2.8-58.7-5.2c-5.3-2.2-10.2-5.5-14-9.9c-4-4.7-5.9-9.8-6.4-15.8c5.8,3.6,10.5,8.5,16.6,11.5
	c6.1,3.1,12.9,4.7,19.8,5.2c36.9,2.9,68.6-10.3,96.6-32.8c15.4-12.4,27.1-27.7,31.3-48c3.3-16.3-5.3-29.1-19.1-34.9
	c-12.7-5.3-26.1-6.5-40.1-5.4c-37.8,2.9-71.1,17.8-103.5,35.8c-17.1,9.5-33.3,20.3-47.7,33.5C52,106.6,40.6,121,37.3,139.8
	c-2.7,15.7,1.7,30.2,13.4,41.1C64.3,193.5,78.9,205,93,217c5.8,5,11.4,10.2,16.9,15.4c2.1,2,3.9,2.6,7,1.9
	c20.8-4.8,41.7-6.4,62.3,0.6c18,6.1,30.9,17.3,35.2,36.7c3.3,15,0.3,27.2-13.4,36.2c-2.4,1.5-5.4,2.2-8.1,2.8
	c-1.8,0.4-4.7,1.3-6.5,0.6c0.4-1.1,1.7-1.8,2.7-2.3c6.1-2.7,10.8-6.2,13.6-12.5c2.6-5.7,2.9-12.3,1.4-18.3
	c-1.2-4.8-3.7-9.3-7.1-12.9c-10.4-11.1-23.2-16.4-37.8-18.4c-11.5-1.6-23-1.6-34.5,0.8c-3.9,0.8-3.8,1.8-3,5.2
	c8.2,31.5,0.4,59.1-21.9,82.3c-10.8,11.2-25.1,16.7-40.2,19.6c-9.6,1.9-19.3,2.6-28.6-1.9c-9.6-4.6-13.5-12.9-15.2-22.8
	c-2.9-18,4.9-32,16.7-44.4c17.1-18.1,38.5-29.9,60.8-41.8c-4.1-3.1-8-6-11.9-8.8C66,223.8,49.9,213.1,35,201
	c-13.2-10.8-25.3-23-31.8-39.5C2,158.4,1.1,155.2,0,152c0-4.3,0-8.7,0-13c2.6-7.1,4.5-14.7,8-21.4C21.3,91.8,42.1,72.9,65.1,56
	c24-17.6,50.2-31.1,78-41.5c16.6-6.2,33.5-11.1,51.3-12.6c5.2-0.5,10.4-1.3,15.5-2c5,0,10,0,15,0c1,0.3,2.1,0.9,3.1,1
	c13.4,0.2,26.4,3,38.7,8.2c16.4,6.9,29.4,17.5,33.6,35.9c0.5,2.3,1,4.6,1.6,6.9C302,54.7,302,57.3,302,60z M102,257.6
	c-18.2,9.2-34.9,19.5-47.8,35.1c-6.2,7.4-10.1,16-11.9,25.6c-1.2,6.7,2,13.6,7.8,14.5c3.7,0.5,7.7,0.7,11.3-0.2
	C92.6,325.1,113.2,291,102,257.6z"/>
<path class="st0" d="M302,52c-0.5-2.3-1-4.6-1.6-6.9c-4.3-18.5-17.2-29-33.6-35.9c-12.3-5.2-25.3-8-38.7-8.2c-1,0-2.1-0.6-3.1-1
	c25.7,0,51.3,0,77,0C302,17.3,302,34.7,302,52z"/>
</svg>
