<?xml version="1.0" encoding="utf-8"?>
<!-- Generator: Adobe Illustrator 23.0.6, SVG Export Plug-In . SVG Version: 6.00 Build 0)  -->
<svg version="1.1" id="Layer_1" xmlns="http://www.w3.org/2000/svg" xmlns:xlink="http://www.w3.org/1999/xlink" x="0px" y="0px"
	 viewBox="0 0 301.96 356.33" style="enable-background:new 0 0 301.96 356.33;" xml:space="preserve">
<style type="text/css">
	.st0{fill:#FFFFFF;}
</style>
<path fill="#4D4D4D" d="M301.96,59.99c-1.16,5.68-2.05,11.43-3.52,17.04c-6.46,24.66-21.47,43.35-41.97,57.67c-19.64,13.72-41.57,21.86-65.37,25.43
	c-20.11,3.02-39.76,2.77-58.74-5.2c-5.3-2.23-10.24-5.54-14.01-9.92c-4.02-4.67-5.91-9.79-6.42-15.83
	c5.78,3.56,10.47,8.47,16.59,11.53c6.15,3.07,12.94,4.67,19.78,5.22c36.87,2.95,68.6-10.26,96.63-32.82
	c15.35-12.36,27.13-27.69,31.25-48.01c3.3-16.27-5.26-29.1-19.13-34.91c-12.74-5.33-26.12-6.49-40.09-5.43
	c-37.75,2.87-71.1,17.8-103.5,35.83c-17.07,9.5-33.29,20.26-47.71,33.47c-13.71,12.56-25.19,26.91-28.45,45.77
	c-2.71,15.69,1.65,30.18,13.4,41.08c13.57,12.6,28.2,24.06,42.27,36.13c5.8,4.97,11.41,10.17,16.93,15.45
	c2.12,2.02,3.87,2.62,6.98,1.9c20.79-4.82,41.7-6.35,62.34,0.63c17.99,6.08,30.92,17.34,35.2,36.73
	c3.32,15.05,0.31,27.22-13.36,36.21c-2.36,1.55-5.38,2.21-8.1,2.75c-1.8,0.36-4.74,1.25-6.52,0.62c0.42-1.1,1.71-1.81,2.74-2.27
	c6.08-2.7,10.78-6.23,13.57-12.48c2.55-5.71,2.94-12.28,1.38-18.32c-1.24-4.81-3.71-9.26-7.1-12.89
	c-10.37-11.13-23.19-16.37-37.79-18.43c-11.54-1.62-22.97-1.56-34.46,0.82c-3.88,0.8-3.84,1.79-2.97,5.16
	c8.16,31.49,0.39,59.09-21.88,82.32c-10.77,11.24-25.12,16.69-40.21,19.61c-9.57,1.85-19.29,2.63-28.59-1.85
	c-9.59-4.62-13.55-12.89-15.16-22.8c-2.92-18,4.9-31.95,16.67-44.42c17.08-18.1,38.49-29.89,60.85-41.76
	c-4.13-3.07-7.97-5.98-11.87-8.82c-15.59-11.37-31.7-22.09-46.64-34.25C21.78,190.2,9.69,177.95,3.22,161.5
	C2,158.38,1.07,155.16,0,151.98c0-4.33,0-8.67,0-13c2.61-7.15,4.49-14.67,7.96-21.38C21.27,91.84,42.12,72.9,65.12,56.03
	c24-17.61,50.24-31.06,78.02-41.49c16.57-6.22,33.54-11.06,51.31-12.59c5.19-0.45,10.35-1.29,15.52-1.95c5,0,10,0,15,0
	c1.04,0.33,2.08,0.94,3.12,0.96c13.44,0.19,26.39,2.98,38.69,8.17c16.43,6.93,29.35,17.46,33.61,35.93
	c0.53,2.31,1.05,4.63,1.57,6.94C301.96,54.66,301.96,57.33,301.96,59.99z M101.97,257.63c-18.16,9.19-34.91,19.55-47.78,35.13
	c-6.15,7.44-10.12,15.97-11.88,25.58c-1.22,6.71,1.99,13.64,7.79,14.48c3.68,0.53,7.69,0.7,11.26-0.17
	C92.64,325.08,113.21,291.01,101.97,257.63z"/>
<path fill="#4D4D4D" class="st0" d="M209.97,0c-5.17,0.66-10.33,1.51-15.52,1.95c-17.77,1.53-34.74,6.36-51.31,12.59
	c-27.78,10.43-54.02,23.89-78.02,41.49C42.12,72.9,21.27,91.84,7.96,117.6c-3.46,6.71-5.35,14.23-7.96,21.38C0,92.72,0,46.46,0,0
	C69.99,0,139.98,0,209.97,0z"/>
<path fill="#4D4D4D" class="st0" d="M301.96,51.99c-0.52-2.31-1.04-4.63-1.57-6.94c-4.25-18.47-17.17-28.99-33.61-35.93
	c-12.31-5.19-25.26-7.98-38.69-8.17c-1.04-0.01-2.08-0.62-3.12-0.96c25.66,0,51.33,0,76.99,0
	C301.96,17.33,301.96,34.66,301.96,51.99z"/>
<path fill="#4D4D4D" class="st0" d="M101.97,257.63c11.24,33.38-9.33,67.45-40.61,75.02c-3.57,0.86-7.58,0.7-11.26,0.17
	c-5.8-0.84-9.01-7.77-7.79-14.48c1.75-9.61,5.73-18.14,11.88-25.58C67.07,277.18,83.81,266.81,101.97,257.63z"/>
</svg>
