<?xml version="1.0" encoding="utf-8"?>
<!-- Generator: Adobe Illustrator 23.0.6, SVG Export Plug-In . SVG Version: 6.00 Build 0)  -->
<svg version="1.1" id="figma" xmlns="http://www.w3.org/2000/svg" xmlns:xlink="http://www.w3.org/1999/xlink" x="0px" y="0px"
	 viewBox="0 0 15.8 21.76" style="enable-background:new 0 0 15.8 21.76;" xml:space="preserve">
<style type="text/css">
	.st0{fill-rule:evenodd;clip-rule:evenodd;}
</style>
<path class="st0" fill="#4D4D4D" d="M4.39,0h7.02c2.42,0,4.39,1.92,4.39,4.21c0,1.34-0.67,2.56-1.72,3.33c1.04,0.78,1.72,1.99,1.72,3.33
	c0,2.3-1.97,4.21-4.39,4.21c-0.99,0-1.9-0.32-2.63-0.85v3.3c0,2.3-1.97,4.21-4.39,4.21C1.97,21.76,0,19.85,0,17.55
	c0-1.34,0.67-2.56,1.72-3.33C0.67,13.44,0,12.23,0,10.88c0-1.35,0.67-2.56,1.72-3.33C0.67,6.77,0,5.56,0,4.21C0,1.92,1.97,0,4.39,0z
	 M7.02,15.09H4.39c-1.43,0-2.63,1.1-2.63,2.45c0,1.36,1.2,2.45,2.63,2.45c1.43,0,2.63-1.09,2.63-2.45V15.09z M8.78,10.88
	c0-1.36,1.2-2.45,2.63-2.45c1.43,0,2.63,1.1,2.63,2.45c0,1.36-1.2,2.45-2.63,2.45C9.98,13.33,8.78,12.24,8.78,10.88z M4.36,8.43
	c-1.42,0.02-2.6,1.1-2.6,2.45c0,1.36,1.2,2.45,2.63,2.45h2.63V8.43H4.39L4.36,8.43z M7.02,6.67V1.76H4.39
	c-1.43,0-2.63,1.09-2.63,2.45c0,1.36,1.2,2.45,2.63,2.45H7.02z M8.78,6.67h2.63c1.43,0,2.63-1.09,2.63-2.45
	c0-1.36-1.2-2.45-2.63-2.45H8.78V6.67z"/>
</svg>
