<?xml version="1.0" encoding="utf-8"?>
<!-- Generator: Adobe Illustrator 23.0.6, SVG Export Plug-In . SVG Version: 6.00 Build 0)  -->
<svg version="1.1" id="Layer_1" xmlns="http://www.w3.org/2000/svg" xmlns:xlink="http://www.w3.org/1999/xlink" x="0px" y="0px"
	 viewBox="0 0 110.94 114.01" style="enable-background:new 0 0 110.94 114.01;" xml:space="preserve">
<g id="Id">
	<path fill="#4D4D4D" d="M21.97,9.77v101.09c0,1.08-0.49,1.58-1.38,1.58H1.28c-0.89,0-1.28-0.49-1.28-1.58V9.77c0-0.89,0.49-1.28,1.38-1.28h19.21
		c0.59-0.1,1.18,0.3,1.28,0.99C21.97,9.57,21.97,9.67,21.97,9.77z"/>
	<path fill="#4D4D4D" d="M78.72,114.01c-7.29,0.1-14.58-1.38-21.18-4.43c-6.21-2.86-11.33-7.59-14.88-13.4c-3.65-6.01-5.42-13.5-5.42-22.46
		c-0.1-7.29,1.77-14.48,5.42-20.79c3.74-6.4,9.16-11.72,15.67-15.27c6.9-3.84,15.17-5.71,24.93-5.71c0.49,0,1.18,0,2.07,0.1
		c0.89,0.1,1.87,0.1,3.05,0.2V1.1c0-0.69,0.3-1.08,0.99-1.08h20c0.49-0.1,0.89,0.3,0.99,0.69c0,0.1,0,0.2,0,0.2v93.8
		c0,1.77,0.1,3.74,0.2,5.91c0.2,2.07,0.3,4.04,0.39,5.71c0,0.69-0.3,1.28-0.99,1.58c-5.12,2.17-10.54,3.74-16.06,4.73
		C88.97,113.52,83.85,114.01,78.72,114.01z M88.38,94.3V50.95c-0.89-0.2-1.77-0.39-2.66-0.49c-1.08-0.1-2.17-0.2-3.25-0.2
		c-3.84,0-7.69,0.79-11.13,2.56c-3.35,1.67-6.21,4.14-8.37,7.29c-2.17,3.15-3.25,7.39-3.25,12.51c-0.1,3.45,0.49,6.9,1.67,10.15
		c0.99,2.66,2.46,5.02,4.43,7c1.87,1.77,4.14,3.15,6.7,3.94c2.66,0.89,5.42,1.28,8.18,1.28c1.48,0,2.86-0.1,4.14-0.2
		C86.11,94.9,87.29,94.7,88.38,94.3z"/>
</g>
</svg>
