<?xml version="1.0" encoding="utf-8"?>
<!-- Generator: Adobe Illustrator 23.0.6, SVG Export Plug-In . SVG Version: 6.00 Build 0)  -->
<svg version="1.1" id="Layer_1" xmlns="http://www.w3.org/2000/svg" xmlns:xlink="http://www.w3.org/1999/xlink" x="0px" y="0px"
	 viewBox="0 0 329.61 310.81" style="enable-background:new 0 0 329.61 310.81;" xml:space="preserve">
<g>
	<path fill="#4D4D4D" d="M38.8,44.81c-2.43,8.72-5.5,17.31-7.16,26.17c-6.33,33.74-1.04,66.09,14.64,96.33c27.6,53.22,71.04,87.11,129.51,99.97
		c36.52,8.03,72.87,5.55,107.09-11.48c6.96-3.46,13.61-7.76,19.84-12.43c6.09-4.56,11.46-10.07,17.46-15.44
		c-0.59,1.35-1,2.59-1.63,3.71c-24.17,43.14-60.51,68.88-109.45,76.81C110.75,324.4,30.52,256.63,7.67,182.55
		c-10.72-34.76-11.43-69.33,5.76-102.29c6.68-12.82,16.22-24.15,24.46-36.16C38.19,44.34,38.49,44.58,38.8,44.81z"/>
	<path fill="#4D4D4D" d="M329.61,143.19c-9.66,21.45-23.56,37.52-42.82,48.75c-20.76,12.1-43.43,15.72-67.18,15.02
		c-37.54-1.11-67.73-17.8-91.77-45.16c-27.88-31.74-38.75-68.48-25.72-110.2c4.11-13.18,12.54-23.89,19.89-33.75
		c-1.72,9.43-4.66,19.73-5.31,30.17c-1.89,30.34,8.55,56.9,27.51,80.16c23.06,28.29,52.81,45.64,88.99,50.42
		C270.64,183.54,303.21,173.13,329.61,143.19z"/>
	<path fill="#4D4D4D" d="M193.43,0c-0.65,3.02-1.51,6.01-1.93,9.06c-3.83,28.17,7.37,50.77,27.85,68.63c22.24,19.39,48.56,26.45,77.6,19.1
		c7.14-1.81,13.56-6.49,19.46-9.43c-8.99,14.48-22.68,24.5-40.77,27.78c-45.6,8.25-83.64-22.24-93.9-56.81
		C175.43,37.03,178.89,17.36,193.43,0z"/>
</g>
</svg>
